<svg width="24" height="24" fill="none" xmlns="http://www.w3.org/2000/svg"><path d="M3 10.0026c0 4.9703 4.02922 8.9995 8.9991 8.9995 3.3319 0 6.241-1.8107 7.7967-4.5016l-.0011-.0012c2.4832-4.3052 1.0063-9.80828-3.2985-12.2919C12.1913-.276217 6.68788 1.20029 4.20426 5.50513l-.0015-.00038C3.43784 6.82805 3 8.36426 3 10.0026z" fill="#17A423"/><path d="M20.0455 5.97339c-.481.2775-12.22542 7.05881-15.55844 8.98331.81335 1.2309 1.92148 2.2497 3.223 2.9571v1.362h8.57964V17.915c1.4596-.7931 2.6755-1.9786 3.5058-3.4145l-.0012-.0012c1.5685-2.7187 1.5561-5.91387.2512-8.52591zM16.29 20.666H7.70996v1.3763h2.61434c.0983.8388.8103 1.49 1.6755 1.49s1.5771-.6512 1.6755-1.49h2.6143V20.666h.0004z" fill="#0F7E23"/><path d="M11.0973 9.97661c0-.62448-.5062-1.13066-1.1307-1.13066-.62448 0-1.13066.50618-1.13066 1.13066 0 .59409.45812 1.07999 1.04016 1.12619v8.577h1.2208v-9.645h-.0026c.0011-.0191.003-.03829.003-.05819zM15.1646 9.97661c0-.62448-.5061-1.13066-1.1306-1.13066s-1.1307.50618-1.1307 1.13066c0 .01952.0019.03869.003.05819h-.003v9.645h1.2208v-8.577c.582-.0459 1.0405-.5321 1.0405-1.12619z" fill="#fff"/></svg>