<svg width="24" height="24" fill="none" xmlns="http://www.w3.org/2000/svg"><path d="M11.8598 8.57292l7.837 4.52488H4.02285l7.83695-4.52488zm0-1.70866L.275549 13.5525c-.486761.2812-.2871757 1.0251.274779 1.0251H23.1697c.562 0 .7616-.7439.2748-1.0251L11.8598 6.86426zM12.5997 6.00712h-1.4798V3.88929s.5803-.0244.7399-.0332c.5972-.034 1.1763-.55115 1.1763-1.1999 0-.64875-.5276-1.17631-1.1763-1.17631-.6487 0-1.1763.52756-1.1763 1.17631H9.20361C9.20361 1.1915 10.3951 0 11.8598 0c1.4647 0 2.6562 1.1915 2.6562 2.65619 0 1.2079-.8103 2.23022-1.9163 2.55139v.79954z" fill="#F842F3"/><path d="M13.3444 5.78955h-2.9689v1.93144h2.9689V5.78955z" fill="#D92ED9"/><path d="M8.92569 22.0049H7.44141v1.995h1.48428v-1.995zM14.8627 22.0049h-1.4843v1.995h1.4843v-1.995zM17.3892 14.2617h-2.251v5.7752h2.251v-5.7752zM11.8935 22.0049h-1.4843v1.995h1.4843v-1.995z" fill="#F842F3"/><path d="M15.4548 13.0881H6.75513v9.2033h8.69967v-9.2033z" fill="#D92ED9"/></svg>