<svg width="24" height="24" fill="none" xmlns="http://www.w3.org/2000/svg"><path d="M18 3l-6.0001 3.46502-.9555 6.05408.9555 7.803L24 13.3936V6.46502L18 3zm-1.437 8.8861c-.621 0-1.125-.504-1.125-1.125 0-.6211.504-1.12506 1.125-1.12506s1.125.50396 1.125 1.12506c0 .621-.504 1.125-1.125 1.125zm2.874-1.6636c-.621 0-1.125-.50396-1.125-1.12496s.504-1.12501 1.125-1.12501 1.125.50401 1.125 1.12501c0 .621-.504 1.12496-1.125 1.12496z" fill="#E04C1A"/><path d="M6.00004 3L0 6.46502v6.92858l12.0001 6.9285V6.46502L6.00004 3zm2.59802 7.671H6.75005v1.8481H5.25004V10.671H3.40202V9.17104h1.84802V7.32303h1.50001v1.84801h1.84801V10.671z" fill="#FD6821"/></svg>