<svg width="24" height="24" fill="none" xmlns="http://www.w3.org/2000/svg"><path d="M9.021 12.8225l10.0446-5.49999v1.57163L9.021 14.3941v-1.5716z" fill="#FFC200"/><path d="M9.73994 8.39771H7.58691V20.2791h2.15303V8.39771z" fill="#EDAF00"/><path d="M20.5002 15.9284h-2.153V4.20106l2.153-.05775V15.9284z" fill="#FFC200"/><path d="M7.58691 11.2148L20.5008 4.14324V1L7.58691 8.07161v3.14319zM6.86927 23.0001c1.58465 0 2.86927-1.2183 2.86927-2.7211 0-1.5029-1.28462-2.7211-2.86927-2.7211C5.28462 17.5579 4 18.7761 4 20.279c0 1.5028 1.28462 2.7211 2.86927 2.7211z" fill="#EDAF00"/><path d="M17.6309 18.6498c1.5846 0 2.8692-1.2183 2.8692-2.7211 0-1.5029-1.2846-2.7212-2.8692-2.7212-1.5847 0-2.8693 1.2183-2.8693 2.7212 0 1.5028 1.2846 2.7211 2.8693 2.7211z" fill="#FFC200"/></svg>