<svg width="24" height="24" fill="none" xmlns="http://www.w3.org/2000/svg"><path d="M20.2594 2.5889L17.5081 1l-2.7514 1.5889L12.0054 1 9.25403 2.5889 6.50269 1 3.75134 2.5889 1 1.00138V23.2501h13.7567l8.2541-4.7653V1.00138L20.2594 2.5889zm1.3757 14.5381h-6.8784v-1.3757h6.8784v1.3757zm0-2.7513h-6.8784V13h6.8784v1.3757zm0-2.7514h-6.8784v-1.3757h6.8784v1.3757zm0-3.43916H2.37567V4.74596H21.6351v3.43918z" fill="#71A4FC"/><path d="M14.7568 18.4834v4.7653l8.2541-4.7653h-8.2541zM13.3811 10.2485H2.37573v9.8237H13.3811v-9.8237z" fill="#1162FB"/></svg>